<!--Generated with Gemini-->

<svg xmlns="http://www.w3.org/2000/svg" width="200" height="200">
  <path fill="#F5D0C1" d="M30 35 C20 35 15 40 15 50 L15 80 C15 90 20 95 30 95 C40 95 45 90 45 80 L45 50 C45 40 40 35 30 35 Z" />
  <path fill="#F5D0C1" d="M170 35 C180 35 185 40 185 50 L185 80 C185 90 180 95 170 95 C160 95 155 90 155 80 L155 50 C155 40 160 35 170 35 Z" />
  <path fill="#F5D0C1" d="M50 50 C50 20 80 10 110 10 C140 10 170 20 170 50 C170 80 140 90 110 90 C80 90 50 80 50 50 Z" />
  <circle cx="80" cy="60" r="5" fill="#333" />
  <circle cx="120" cy="60" r="5" fill="#333" />
  <polygon points="95 70 105 70 100 75" fill="#000" />
  <path fill="#000" d="M90 80 C95 85 105 85 110 80" />
  <path fill="#F5D0C1" d="M50 100 C40 130 60 150 110 150 C160 150 180 130 170 100 L150 130 C130 150 100 150 80 130 L50 100 Z" />
  <path fill="#F5D0C1" d="M130 110 L150 120 L140 135 L120 125 Z" />
</svg>
